<svg width="24" height="24" viewBox="0 0 24 24" fill="none" xmlns="http://www.w3.org/2000/svg">
<path d="M12.75 1.67676C12.75 1.26254 12.4142 0.926758 12 0.926758C11.5858 0.926758 11.25 1.26254 11.25 1.67676V3.67676C11.25 4.09097 11.5858 4.42676 12 4.42676C12.4142 4.42676 12.75 4.09097 12.75 3.67676V1.67676ZM20.012 5.03369C20.3041 4.73996 20.3027 4.26509 20.009 3.97304C19.7152 3.68098 19.2404 3.68234 18.9483 3.97607L17.7182 5.21329C17.4261 5.50702 17.4275 5.98189 17.7212 6.27394C18.0149 6.566 18.4898 6.56464 18.7818 6.27091L20.012 5.03369ZM12.0103 5.92676C8.55849 5.92676 5.76025 8.72499 5.76025 12.1768C5.76025 15.6285 8.55849 18.4268 12.0103 18.4268C15.462 18.4268 18.2603 15.6285 18.2603 12.1768C18.2603 8.72499 15.462 5.92676 12.0103 5.92676ZM7.26025 12.1768C7.26025 9.55342 9.38692 7.42676 12.0103 7.42676C14.6336 7.42676 16.7603 9.55342 16.7603 12.1768C16.7603 14.8001 14.6336 16.9268 12.0103 16.9268C9.38692 16.9268 7.26025 14.8001 7.26025 12.1768ZM6.06251 17.8407C6.35624 18.1328 6.3576 18.6076 6.06554 18.9014L5.04209 19.9307C4.75004 20.2244 4.27517 20.2258 3.98144 19.9337C3.68771 19.6416 3.68636 19.1668 3.97841 18.873L5.00186 17.8437C5.29391 17.55 5.76879 17.5487 6.06251 17.8407ZM12.75 20.6768C12.75 20.2625 12.4142 19.9268 12 19.9268C11.5858 19.9268 11.25 20.2625 11.25 20.6768V22.1768C11.25 22.591 11.5858 22.9268 12 22.9268C12.4142 22.9268 12.75 22.591 12.75 22.1768V20.6768ZM19.25 11.6768C19.25 11.2625 19.5858 10.9268 20 10.9268H22C22.4142 10.9268 22.75 11.2625 22.75 11.6768C22.75 12.091 22.4142 12.4268 22 12.4268H20C19.5858 12.4268 19.25 12.091 19.25 11.6768ZM19.2964 17.6376C19.0035 17.3447 18.5287 17.3447 18.2358 17.6376C17.9429 17.9305 17.9429 18.4054 18.2358 18.6983L19.4695 19.932C19.7624 20.2249 20.2373 20.2249 20.5301 19.932C20.823 19.6391 20.823 19.1642 20.5301 18.8713L19.2964 17.6376ZM12.0103 8.67676C10.0773 8.67676 8.51025 10.2438 8.51025 12.1768C8.51025 14.1098 10.0773 15.6768 12.0103 15.6768V8.67676ZM2 11.4268C1.58579 11.4268 1.25 11.7625 1.25 12.1768C1.25 12.591 1.58579 12.9268 2 12.9268H4C4.41421 12.9268 4.75 12.591 4.75 12.1768C4.75 11.7625 4.41421 11.4268 4 11.4268H2ZM4.49164 3.97456C4.78453 3.68166 5.2594 3.68166 5.5523 3.97455L6.5787 5.00093C6.87159 5.29382 6.8716 5.76869 6.57871 6.06159C6.28582 6.35448 5.81094 6.35449 5.51805 6.0616L4.49165 5.03522C4.19875 4.74233 4.19875 4.26745 4.49164 3.97456Z" fill="#1E93FF"/>
</svg>
