<svg width="40" height="40" viewBox="0 0 40 40" fill="none" xmlns="http://www.w3.org/2000/svg">
<g clip-path="url(#clip0_4_2357)">
<path d="M0 9.01561H40V30.9898H0V9.01561Z" fill="#EBEBEB"/>
<path d="M0 26.835V32.6354C0.0014385 34.5896 0.778375 36.4634 2.16021 37.8452C3.54204 39.227 5.41578 40.004 7.36998 40.0054H32.6354C34.5896 40.004 36.4634 39.227 37.8452 37.8452C39.227 36.4634 40.004 34.5896 40.0054 32.6354V26.835H0Z" fill="#00A504"/>
<path d="M32.6354 0H7.36998C5.41578 0.0014385 3.54204 0.778375 2.16021 2.16021C0.778375 3.54204 0.0014385 5.41578 0 7.36998V13.3007H40.0054V7.36998C40.004 5.41578 39.227 3.54204 37.8452 2.16021C36.4634 0.778375 34.5896 0.0014385 32.6354 0Z" fill="#FF8B22"/>
<path d="M20.0027 25.6076C18.9133 25.6076 17.8483 25.2845 16.9426 24.6791C16.0368 24.0737 15.331 23.2133 14.9143 22.2067C14.4976 21.2001 14.3889 20.0925 14.6018 19.0241C14.8148 17.9556 15.3398 16.9744 16.1105 16.2044C16.8813 15.4344 17.863 14.9104 18.9317 14.6985C20.0003 14.4866 21.1078 14.5964 22.114 15.0141C23.1202 15.4317 23.9799 16.1385 24.5844 17.0448C25.1889 17.9512 25.5109 19.0165 25.5099 20.1059C25.5084 21.5655 24.9276 22.9649 23.8949 23.9965C22.8623 25.0281 21.4624 25.6076 20.0027 25.6076ZM20.0027 16.0108C19.1926 16.0098 18.4003 16.249 17.7262 16.6983C17.052 17.1477 16.5263 17.7868 16.2155 18.535C15.9048 19.2832 15.8229 20.1067 15.9803 20.9015C16.1377 21.6962 16.5273 22.4263 17.0997 22.9996C17.6722 23.5728 18.4019 23.9634 19.1964 24.1218C19.9909 24.2803 20.8146 24.1995 21.5631 23.8897C22.3117 23.58 22.9516 23.0551 23.4018 22.3815C23.852 21.708 24.0923 20.916 24.0923 20.1059C24.0923 19.0208 23.6617 17.98 22.8949 17.2122C22.1281 16.4444 21.0879 16.0123 20.0027 16.0108Z" fill="#0063BC"/>
<path d="M20.0027 24.8527C19.8587 24.8527 19.7205 24.7955 19.6187 24.6936C19.5168 24.5917 19.4596 24.4536 19.4596 24.3096V21.4311L17.4555 23.4352C17.4052 23.4865 17.3452 23.5273 17.279 23.5553C17.2129 23.5832 17.1418 23.5978 17.0699 23.5981C16.9971 23.5985 16.925 23.5843 16.8578 23.5563C16.7907 23.5283 16.7298 23.4871 16.6789 23.4352C16.628 23.3847 16.5876 23.3246 16.56 23.2584C16.5324 23.1922 16.5182 23.1212 16.5182 23.0495C16.5182 22.9778 16.5324 22.9069 16.56 22.8407C16.5876 22.7745 16.628 22.7144 16.6789 22.6639L18.6884 20.6544H15.8099C15.6659 20.6544 15.5277 20.5972 15.4259 20.4954C15.324 20.3935 15.2668 20.2554 15.2668 20.1113C15.2668 19.9673 15.324 19.8291 15.4259 19.7273C15.5277 19.6254 15.6659 19.5682 15.8099 19.5682H18.6884L16.6789 17.5641C16.6 17.4882 16.5459 17.3902 16.5237 17.2829C16.5015 17.1757 16.5123 17.0642 16.5546 16.9632C16.5969 16.8622 16.6687 16.7763 16.7607 16.7168C16.8526 16.6574 16.9604 16.6271 17.0699 16.63C17.1414 16.6296 17.2122 16.6433 17.2784 16.6703C17.3446 16.6973 17.4048 16.7372 17.4555 16.7875L19.4596 18.7916V15.9131C19.4596 15.769 19.5168 15.6309 19.6187 15.529C19.7205 15.4272 19.8587 15.37 20.0027 15.37C20.1467 15.37 20.2849 15.4272 20.3867 15.529C20.4886 15.6309 20.5458 15.769 20.5458 15.9131V18.7916L22.5499 16.7875C22.6006 16.7372 22.6608 16.6973 22.727 16.6703C22.7931 16.6433 22.864 16.6296 22.9355 16.63C23.0438 16.6283 23.1502 16.659 23.241 16.7182C23.3317 16.7774 23.4026 16.8624 23.4447 16.9623C23.4867 17.0621 23.4979 17.1723 23.4769 17.2786C23.4558 17.3849 23.4035 17.4824 23.3265 17.5587L21.317 19.5682H24.1955C24.3395 19.5682 24.4777 19.6254 24.5795 19.7273C24.6814 19.8291 24.7386 19.9673 24.7386 20.1113C24.7386 20.2554 24.6814 20.3935 24.5795 20.4954C24.4777 20.5972 24.3395 20.6544 24.1955 20.6544H21.317L23.3265 22.6639C23.3774 22.7144 23.4178 22.7745 23.4454 22.8407C23.473 22.9069 23.4872 22.9778 23.4872 23.0495C23.4872 23.1212 23.473 23.1922 23.4454 23.2584C23.4178 23.3246 23.3774 23.3847 23.3265 23.4352C23.2756 23.4871 23.2147 23.5283 23.1476 23.5563C23.0804 23.5843 23.0083 23.5985 22.9355 23.5981C22.8636 23.5978 22.7925 23.5832 22.7263 23.5553C22.6602 23.5273 22.6002 23.4865 22.5499 23.4352L20.5458 21.4311V24.3096C20.5458 24.4536 20.4886 24.5917 20.3867 24.6936C20.2849 24.7955 20.1467 24.8527 20.0027 24.8527Z" fill="#0063BC"/>
</g>
<defs>
<clipPath id="clip0_4_2357">
<rect width="40" height="40" rx="20" fill="white"/>
</clipPath>
</defs>
</svg>
