<svg width="42" height="42" viewBox="0 0 42 42" fill="none" xmlns="http://www.w3.org/2000/svg">
<g clip-path="url(#clip0_4_1573)">
<path d="M21 42C32.598 42 42 32.598 42 21C42 9.40202 32.598 0 21 0C9.40202 0 0 9.40202 0 21C0 32.598 9.40202 42 21 42Z" fill="#EBEBEB"/>
<path d="M5.60306 13.5398L9.99993 8.91718L10.983 9.9383L6.58612 14.5622L5.60306 13.5398Z" fill="#28292B"/>
<path d="M7.01663 15.0426L11.4122 10.4186L12.3966 11.4398L8.00101 16.0637L7.01663 15.0426Z" fill="#28292B"/>
<path d="M8.38818 16.4811L12.7837 11.8585L13.7681 12.8783L9.37125 17.5022L8.38818 16.4811Z" fill="#28292B"/>
<path d="M30.7545 26.4784L32.4804 24.6606L33.4648 25.683L31.7362 27.5048L30.7545 26.4784Z" fill="#28292B"/>
<path d="M29.0679 30.3056L28.0822 29.2845L29.7741 27.5048L30.7545 28.5285L29.0679 30.3056Z" fill="#28292B"/>
<path d="M32.1838 27.9655L33.894 26.1647L34.8771 27.1859L33.1629 28.9905L32.1838 27.9655Z" fill="#28292B"/>
<path d="M30.4841 31.8072L29.4998 30.7847L31.2021 28.9905L32.1838 30.0156L30.4841 31.8072Z" fill="#28292B"/>
<path d="M34.541 30.4211L33.5593 29.3961L35.2642 27.6032L36.246 28.6243L34.541 30.4211Z" fill="#28292B"/>
<path d="M31.8557 33.2483L30.8726 32.2258L32.5815 30.4264L33.5632 31.4501L31.8557 33.2483Z" fill="#28292B"/>
<path d="M34.6579 11.5435L36.3969 13.3481L35.4191 14.3771L33.6774 12.5685L34.6579 11.5435Z" fill="#28292B"/>
<path d="M30.996 9.77946L31.9751 8.75177L33.6774 10.5184L32.697 11.5435L30.996 9.77946Z" fill="#28292B"/>
<path d="M29.5614 11.26L30.5392 10.231L34.9584 14.8234L33.9819 15.8524L29.5614 11.26Z" fill="#28292B"/>
<path d="M30.8844 15.5006L31.8662 14.4756L33.5829 16.2553L32.6051 17.2843L30.8844 15.5006Z" fill="#28292B"/>
<path d="M28.182 12.6945L29.1585 11.6655L30.8818 13.4532L29.9001 14.4782L28.182 12.6945Z" fill="#28292B"/>
<path d="M8.44461 25.6174L9.42242 24.5897L13.8469 29.1861L12.869 30.2138L8.44461 25.6174Z" fill="#28292B"/>
<path d="M10.6851 28.8737L12.4084 30.6627L11.4306 31.6903L9.70331 29.9001L10.6851 28.8737Z" fill="#28292B"/>
<path d="M7.01007 27.0979L7.98788 26.0689L9.70332 27.85L8.72288 28.8737L7.01007 27.0979Z" fill="#28292B"/>
<path d="M5.63062 28.5324L6.60712 27.5048L11.0316 32.0946L10.0537 33.1223L5.63062 28.5324Z" fill="#28292B"/>
<path d="M28.4944 21C28.5384 23.027 27.7758 24.9884 26.3741 26.4533C24.9725 27.9182 23.0466 28.7666 21.0197 28.812C18.993 28.7662 17.0674 27.9177 15.6661 26.4528C14.2648 24.988 13.5023 23.0267 13.5463 21C13.502 18.9731 14.2643 17.0115 15.6656 15.5464C17.067 14.0812 18.9928 13.2325 21.0197 13.1867C23.0467 13.2325 24.9726 14.0812 26.3742 15.5463C27.7758 17.0114 28.5384 18.973 28.4944 21Z" fill="#2E4593"/>
<path d="M28.455 21C28.4567 21.3653 28.4317 21.7303 28.3802 22.092C28.1636 20.5446 27.3551 17.7529 24.2931 17.6991C23.5389 17.6037 22.7754 17.7792 22.1387 18.1943C21.5019 18.6095 21.0332 19.2372 20.8162 19.9657C20.1324 21.7389 20.0589 23.9032 17.0533 23.9032C16.2227 23.9608 15.4003 23.7078 14.7456 23.1935C14.0908 22.6792 13.6504 21.94 13.5096 21.1194C13.5069 21.081 13.5069 21.0424 13.5096 21.0039C13.506 19.7269 13.8061 18.4672 14.385 17.3289C14.9943 16.0949 15.934 15.054 17.0995 14.322C18.265 13.59 19.6106 13.1956 20.9869 13.1827C23.0133 13.2306 24.938 14.0807 26.3382 15.5463C27.7384 17.012 28.4997 18.9735 28.455 21Z" fill="#DB2E2E"/>
</g>
<defs>
<clipPath id="clip0_4_1573">
<rect width="42" height="42" rx="21" fill="white"/>
</clipPath>
</defs>
</svg>
