<svg width="40" height="40" viewBox="0 0 40 40" fill="none" xmlns="http://www.w3.org/2000/svg">
<g clip-path="url(#clip0_4_1541)">
<path d="M16.0156 0.396881V39.6024C6.87891 37.7555 0 29.6805 0 20C0 10.3195 6.87891 2.24376 16.0156 0.396881Z" fill="#02934D"/>
<path d="M40 20C40 30.9313 31.232 39.8133 20.3445 40H19.6555C18.4328 39.9805 17.2145 39.8498 16.0156 39.6094V0.396881C17.1994 0.159056 18.4022 0.0283201 19.6094 0.0062561H20.3906C31.2547 0.209381 40 9.0836 40 20Z" fill="#DB1B1B"/>
<path d="M16.0156 6.91095C14.3393 6.91095 12.7005 7.40801 11.3066 8.33929C9.91273 9.27057 8.82627 10.5942 8.18461 12.143C7.54294 13.6917 7.3749 15.3959 7.70171 17.0401C8.02853 18.6843 8.83553 20.1947 10.0207 21.3802C11.2058 22.5658 12.7159 23.3734 14.36 23.7008C16.0041 24.0282 17.7084 23.8608 19.2573 23.2197C20.8062 22.5786 22.1303 21.4927 23.0621 20.0991C23.9939 18.7056 24.4916 17.067 24.4922 15.3906C24.4903 13.1428 23.5968 10.9875 22.0076 9.39775C20.4184 7.808 18.2635 6.91364 16.0156 6.91095ZM23.2969 14.8016H17.4305L17.5477 14.6844L19.6805 12.5508L21.5758 10.6555C22.5728 11.8212 23.1752 13.2725 23.2969 14.8016ZM16.6016 8.10626C18.0593 8.22266 19.4479 8.77622 20.5859 9.69454L20.7422 9.82579L16.6016 13.9719V8.10626ZM15.4297 8.10626V13.9719L15.2188 13.7617L12.875 11.4141L11.2875 9.82579L11.4438 9.69454C12.5822 8.77593 13.9714 8.22235 15.4297 8.10626ZM10.4555 10.6555L12.3516 12.5508L14.4844 14.6875L14.6016 14.8047H8.73438C8.85576 13.2746 9.45822 11.8222 10.4555 10.6555ZM8.73672 15.9735H14.6039L13.7914 16.7852L12.6719 17.9039L11.5 19.0758L10.4586 20.118C9.46163 18.9526 8.85819 17.5021 8.73438 15.9735H8.73672ZM15.432 22.668C13.9037 22.5462 12.4529 21.9446 11.2867 20.9492L12.1773 20.0578L13.3297 18.9063L15.4297 16.8047L15.432 22.668ZM16.6039 22.668V16.8008L20.75 20.9477C19.5832 21.9443 18.1312 22.5464 16.6016 22.668H16.6039ZM21.5781 20.1188L19.3648 17.9047L18.2469 16.7891L17.4305 15.9735H23.2969C23.1744 17.5021 22.572 18.9529 21.5758 20.1188H21.5781Z" fill="#F6C752"/>
<path d="M11.5625 9.6875C11.3864 9.68771 11.2177 9.75774 11.0932 9.88223C10.9687 10.0067 10.8986 10.1755 10.8984 10.3516V17.2219H10.9273C11.0614 18.478 11.6552 19.6401 12.5945 20.4847C13.5339 21.3293 14.7524 21.7967 16.0156 21.7969C17.2789 21.7969 18.4975 21.3295 19.4369 20.4849C20.3763 19.6403 20.9701 18.478 21.1039 17.2219H21.1328V10.3477C21.1318 10.1722 21.0614 10.0043 20.9369 9.88062C20.8125 9.75692 20.6442 9.6875 20.4688 9.6875H11.5625Z" fill="#E83838"/>
<path d="M12.9922 11.4063C12.8223 11.4063 12.6593 11.4737 12.5392 11.5939C12.4191 11.714 12.3516 11.877 12.3516 12.0469V16.7969H12.3719C12.4666 17.6973 12.8914 18.5308 13.5642 19.1366C14.237 19.7425 15.1102 20.0779 16.0156 20.0781C16.9211 20.0779 17.7945 19.7426 18.4674 19.1367C19.1403 18.5308 19.5652 17.6974 19.6602 16.7969H19.6805V12.043C19.6805 11.8731 19.613 11.7101 19.4928 11.59C19.3727 11.4698 19.2097 11.4023 19.0398 11.4023L12.9922 11.4063Z" fill="white"/>
<path d="M15.2805 12.1445C15.239 12.1445 15.1993 12.161 15.17 12.1903C15.1407 12.2196 15.1242 12.2593 15.1242 12.3008V13.457H15.1297C15.153 13.6758 15.2564 13.8781 15.4199 14.0253C15.5835 14.1724 15.7956 14.2538 16.0156 14.2539C16.2357 14.254 16.4481 14.1726 16.6118 14.0255C16.7755 13.8784 16.879 13.6759 16.9023 13.457H16.907V12.3008C16.907 12.2593 16.8906 12.2196 16.8613 12.1903C16.832 12.161 16.7922 12.1445 16.7508 12.1445H15.2805Z" fill="#3E436D"/>
<path d="M15.2805 17.3727C15.239 17.3727 15.1993 17.3891 15.17 17.4184C15.1407 17.4477 15.1242 17.4875 15.1242 17.5289V18.6859H15.1297C15.1532 18.9045 15.2566 19.1067 15.4202 19.2537C15.5837 19.4006 15.7958 19.482 16.0156 19.482C16.2357 19.4821 16.4481 19.4008 16.6118 19.2536C16.7755 19.1065 16.879 18.904 16.9023 18.6852H16.907V17.5281C16.907 17.4867 16.8906 17.447 16.8613 17.4177C16.832 17.3883 16.7922 17.3719 16.7508 17.3719L15.2805 17.3727Z" fill="#3E436D"/>
<path d="M15.2805 14.6875C15.239 14.6875 15.1993 14.704 15.17 14.7333C15.1407 14.7626 15.1242 14.8023 15.1242 14.8438V16H15.1297C15.153 16.2187 15.2564 16.4211 15.4199 16.5682C15.5835 16.7153 15.7956 16.7968 16.0156 16.7969C16.2357 16.797 16.4481 16.7156 16.6118 16.5685C16.7755 16.4214 16.879 16.2189 16.9023 16H16.907V14.8438C16.907 14.8023 16.8906 14.7626 16.8613 14.7333C16.832 14.704 16.7922 14.6875 16.7508 14.6875H15.2805Z" fill="#3E436D"/>
<path d="M13.1711 14.6875C13.1296 14.6875 13.0899 14.704 13.0606 14.7333C13.0313 14.7626 13.0148 14.8023 13.0148 14.8438V16H13.0203C13.0436 16.2187 13.147 16.4211 13.3106 16.5682C13.4741 16.7153 13.6863 16.7968 13.9062 16.7969C14.1263 16.797 14.3387 16.7156 14.5024 16.5685C14.6661 16.4214 14.7696 16.2189 14.793 16H14.7976V14.8438C14.7976 14.8023 14.7812 14.7626 14.7519 14.7333C14.7226 14.704 14.6828 14.6875 14.6414 14.6875H13.1711Z" fill="#3E436D"/>
<path d="M17.4289 14.6875C17.3875 14.6875 17.3477 14.704 17.3184 14.7333C17.2891 14.7626 17.2726 14.8023 17.2726 14.8438V16H17.2781C17.3014 16.2187 17.4048 16.4211 17.5684 16.5682C17.7319 16.7153 17.9441 16.7968 18.1641 16.7969C18.3842 16.797 18.5965 16.7156 18.7602 16.5685C18.9239 16.4214 19.0274 16.2189 19.0508 16H19.0555V14.8438C19.0555 14.8023 19.039 14.7626 19.0097 14.7333C18.9804 14.704 18.9406 14.6875 18.8992 14.6875H17.4289Z" fill="#3E436D"/>
<path d="M16.0156 0.396881V2.12657C12.704 3.79277 9.92041 6.34628 7.97539 9.50222C6.03037 12.6582 5.00041 16.2924 5.00041 19.9996C5.00041 23.7068 6.03037 27.3411 7.97539 30.497C9.92041 33.653 12.704 36.2065 16.0156 37.8727V39.6024C6.87891 37.7555 0 29.6805 0 20C0 10.3195 6.87891 2.24376 16.0156 0.396881Z" fill="#037C3C"/>
<path d="M21.0156 0.396881C19.2792 0.747598 17.5976 1.32933 16.0156 2.12657V0.396881C17.1994 0.159056 18.4022 0.0283201 19.6094 0.0062561H20.3906C21.0959 0.0198772 21.7999 0.069944 22.5 0.156256C22 0.216412 21.5047 0.298444 21.0156 0.396881Z" fill="#C41C1C"/>
<path d="M21.0156 39.6024C21.5031 39.7008 21.9984 39.7821 22.5 39.8446C21.7848 39.9348 21.0653 39.9867 20.3445 40H19.6555C18.4328 39.9805 17.2145 39.8498 16.0156 39.6094V37.8727C17.5976 38.6699 19.2792 39.2517 21.0156 39.6024Z" fill="#C41C1C"/>
</g>
<defs>
<clipPath id="clip0_4_1541">
<rect width="40" height="40" rx="20" fill="white"/>
</clipPath>
</defs>
</svg>
