<svg width="40" height="40" viewBox="0 0 40 40" fill="none" xmlns="http://www.w3.org/2000/svg">
<g clip-path="url(#clip0_4_1601)">
<path d="M20 40C31.0457 40 40 31.0457 40 20C40 8.9543 31.0457 0 20 0C8.9543 0 0 8.9543 0 20C0 31.0457 8.9543 40 20 40Z" fill="#EBEBEB"/>
<path d="M40 20C40 11.4007 34.5725 4.06982 26.9565 1.24396V38.7561C34.5725 35.9301 40 28.5993 40 20Z" fill="#D80027"/>
<path d="M0 20C0 28.5993 5.42758 35.9301 13.0435 38.756V1.24396C5.42758 4.06982 0 11.4007 0 20Z" fill="#0052B4"/>
</g>
<defs>
<clipPath id="clip0_4_1601">
<rect width="40" height="40" fill="white"/>
</clipPath>
</defs>
</svg>
