<svg width="105" height="28" viewBox="0 0 105 28" fill="none" xmlns="http://www.w3.org/2000/svg">
<path fill-rule="evenodd" clip-rule="evenodd" d="M72.9744 7.67317V8.7694H65.4154V7.67317C65.4154 7.39254 65.6428 7.16492 65.9237 7.16492H72.4662C72.7468 7.16492 72.9744 7.39254 72.9744 7.67317ZM65.415 11.7433V9.7887L72.974 9.78892V11.7436C72.974 11.8847 72.9154 12.0194 72.8121 12.1157L71.4622 13.3716V21.4751C71.4622 21.7557 71.2346 21.9833 70.9539 21.9833H67.4351C67.1545 21.9833 66.9269 21.7557 66.9269 21.4751V13.3714L65.577 12.1155C65.4737 12.0192 65.415 11.8844 65.415 11.7433ZM68.5153 15.328C68.5153 15.7033 68.8195 16.0075 69.1948 16.0075C69.5701 16.0075 69.8743 15.7033 69.8743 15.328C69.8743 14.9527 69.5701 14.6486 69.1948 14.6486C68.8195 14.6486 68.5153 14.9527 68.5153 15.328Z" fill="#2E73FF"/>
<path d="M68.6852 5.80606V3.48903C68.6852 2.81453 69.7045 2.81453 69.7045 3.48903V5.80606C69.7045 6.48055 68.6852 6.48055 68.6852 5.80606Z" fill="#FFE600"/>
<path d="M65.6952 6.13193L64.0079 4.10414C63.5771 3.58773 64.3596 2.93294 64.7909 3.45251L66.4782 5.48031C66.9111 5.99921 66.1213 6.64494 65.6952 6.13193Z" fill="#FFE600"/>
<path d="M71.9114 5.48042L73.5987 3.45262C74.0275 2.93191 74.8139 3.58625 74.3817 4.10425L72.6943 6.13204C72.2683 6.64505 71.4785 5.99932 71.9114 5.48042Z" fill="#FFE600"/>
<path d="M10.1083 15.8739H4.66828V21.8539H2.10828V7.23388H11.1483V9.59388H4.66828V13.5739H10.1083V15.8739ZM15.5559 21.8539H13.1359V6.97388H15.5559V21.8539ZM21.0555 22.1139C18.9555 22.1139 17.6755 20.8939 17.6755 19.0339C17.6755 17.2139 18.9955 16.0739 21.3355 15.8939L24.2955 15.6739V15.4539C24.2955 14.1139 23.4955 13.5739 22.2555 13.5739C20.8155 13.5739 20.0155 14.1739 20.0155 15.2139H17.9355C17.9355 13.0739 19.6955 11.6739 22.3755 11.6739C25.0355 11.6739 26.6755 13.1139 26.6755 15.8539V21.8539H24.5355L24.3555 20.3939C23.9355 21.4139 22.5955 22.1139 21.0555 22.1139ZM21.8555 20.2739C23.3555 20.2739 24.3155 19.3739 24.3155 17.8539V17.3339L22.2555 17.4939C20.7355 17.6339 20.1555 18.1339 20.1555 18.9339C20.1555 19.8339 20.7555 20.2739 21.8555 20.2739ZM28.3125 18.8539H30.6325C30.6525 19.7139 31.2925 20.2539 32.4125 20.2539C33.5525 20.2539 34.1725 19.7939 34.1725 19.0739C34.1725 18.5739 33.9125 18.2139 33.0325 18.0139L31.2525 17.5939C29.4725 17.1939 28.6125 16.3539 28.6125 14.7739C28.6125 12.8339 30.2525 11.6739 32.5325 11.6739C34.7525 11.6739 36.2525 12.9539 36.2725 14.8739H33.9525C33.9325 14.0339 33.3725 13.4939 32.4325 13.4939C31.4725 13.4939 30.9125 13.9339 30.9125 14.6739C30.9125 15.2339 31.3525 15.5939 32.1925 15.7939L33.9725 16.2139C35.6325 16.5939 36.4725 17.3539 36.4725 18.8739C36.4725 20.8739 34.7725 22.1139 32.3325 22.1139C29.8725 22.1139 28.3125 20.7939 28.3125 18.8539ZM40.7703 21.8539H38.3303V6.97388H40.7903V13.2539C41.4103 12.2939 42.5703 11.6739 43.9903 11.6739C46.4303 11.6739 47.7103 13.2139 47.7103 15.7739V21.8539H45.2703V16.3539C45.2703 14.6939 44.4503 13.8939 43.2103 13.8939C41.6703 13.8939 40.7703 14.9739 40.7703 16.4539V21.8539ZM58.4183 7.23388V19.4939H64.5383V21.8539H55.8583V7.23388H58.4183Z" fill="white"/>
<path d="M74.5744 15.9861C74.5744 13.1061 76.4544 10.9461 79.2744 10.9461C80.7544 10.9461 81.9144 11.5661 82.4944 12.6261L82.6344 11.2661H84.8944V20.6461C84.8944 23.9461 82.9144 26.0061 79.7144 26.0061C76.8744 26.0061 74.9344 24.3861 74.6344 21.7461H77.0744C77.2344 23.0261 78.2144 23.7861 79.7144 23.7861C81.3944 23.7861 82.4744 22.7261 82.4744 21.0861V19.4461C81.8544 20.3661 80.6344 20.9461 79.2144 20.9461C76.4144 20.9461 74.5744 18.8461 74.5744 15.9861ZM77.0344 15.9261C77.0344 17.5861 78.0944 18.8261 79.6944 18.8261C81.3744 18.8261 82.4144 17.6461 82.4144 15.9261C82.4144 14.2461 81.3944 13.0861 79.6944 13.0861C78.0744 13.0861 77.0344 14.3061 77.0344 15.9261ZM89.8595 21.1461H87.4195V6.26612H89.8795V12.5461C90.4995 11.5861 91.6595 10.9661 93.0795 10.9661C95.5195 10.9661 96.7995 12.5061 96.7995 15.0661V21.1461H94.3595V15.6461C94.3595 13.9861 93.5395 13.1861 92.2995 13.1861C90.7595 13.1861 89.8595 14.2661 89.8595 15.7461V21.1461ZM102.557 21.1461H100.117V13.3061H98.2169V11.2661H100.117V8.18612H102.557V11.2661H104.477V13.3061H102.557V21.1461Z" fill="white"/>
</svg>
