<svg width="32" height="32" viewBox="0 0 32 32" fill="none" xmlns="http://www.w3.org/2000/svg">
<circle cx="16" cy="16" r="16" fill="white"/>
<path d="M24.175 9.28333C23.0834 12.0083 20.5917 15.5667 18.2167 17.8917C17.875 15.7417 16.1584 14.0583 13.9917 13.7583C16.325 11.375 19.9084 8.84999 22.6417 7.74999C23.125 7.56666 23.6084 7.70833 23.9084 8.00833C24.225 8.32499 24.375 8.79999 24.175 9.28333Z" fill="#292D32"/>
<path d="M17.4834 18.575C17.3168 18.7166 17.1501 18.8583 16.9834 18.9916L15.4918 20.1833C15.4918 20.1583 15.4834 20.125 15.4834 20.0916C15.3668 19.2 14.9501 18.375 14.2751 17.7C13.5918 17.0166 12.7418 16.6 11.8084 16.4833C11.7834 16.4833 11.7501 16.475 11.7251 16.475L12.9334 14.95C13.0501 14.8 13.1751 14.6583 13.3084 14.5083L13.8751 14.5833C15.6668 14.8333 17.1084 16.2416 17.3918 18.025L17.4834 18.575Z" fill="#292D32"/>
<path d="M14.6916 20.6834C14.6916 21.6001 14.3416 22.4751 13.6749 23.1334C13.1666 23.6501 12.4832 24.0001 11.6499 24.1001L9.60822 24.3251C8.49155 24.4501 7.53322 23.4917 7.65822 22.3667L7.88322 20.3167C8.08322 18.4917 9.60822 17.3251 11.2249 17.2917C11.3832 17.2834 11.5582 17.2917 11.7249 17.3084C12.4332 17.4001 13.1166 17.7251 13.6916 18.2917C14.2499 18.8501 14.5666 19.5084 14.6582 20.2001C14.6749 20.3667 14.6916 20.5251 14.6916 20.6834Z" fill="#292D32"/>
</svg>
