<svg width="30" height="30" viewBox="0 0 30 30" fill="none" xmlns="http://www.w3.org/2000/svg">
<path fill-rule="evenodd" clip-rule="evenodd" d="M17.2705 26.8832C17.383 26.7707 17.5356 26.7075 17.6948 26.7075H21.5999C24.9136 26.7075 27.5999 24.0212 27.5999 20.7075V11.1075C27.5999 7.79383 24.9136 5.10754 21.5999 5.10754H20.6999H5.99999C2.68628 5.10754 0 7.79383 0 11.1075V15.9075V20.7075C0 24.0212 2.68628 26.7075 5.99999 26.7075H9.53602C9.69514 26.7075 9.84775 26.7707 9.96028 26.8832L12.5547 29.4777C13.1405 30.0636 14.0903 30.0636 14.6761 29.4777L17.2705 26.8832Z" fill="#1E93FF"/>
<path fill-rule="evenodd" clip-rule="evenodd" d="M5.39978 10.8075C5.39978 10.1448 5.93705 9.60754 6.59978 9.60754H10.7998C11.4625 9.60754 11.9998 10.1448 11.9998 10.8075C11.9998 11.4703 11.4625 12.0075 10.7998 12.0075H6.59978C5.93705 12.0075 5.39978 11.4703 5.39978 10.8075Z" fill="white"/>
<path fill-rule="evenodd" clip-rule="evenodd" d="M5.39978 20.4075C5.39978 19.7448 5.93705 19.2075 6.59978 19.2075H20.9997C21.6625 19.2075 22.1997 19.7448 22.1997 20.4075C22.1997 21.0702 21.6625 21.6075 20.9997 21.6075H6.59978C5.93705 21.6075 5.39978 21.0702 5.39978 20.4075Z" fill="white"/>
<path fill-rule="evenodd" clip-rule="evenodd" d="M5.39978 15.6076C5.39978 14.9449 5.93705 14.4076 6.59978 14.4076H12.8998C13.5625 14.4076 14.0998 14.9449 14.0998 15.6076C14.0998 16.2703 13.5625 16.8076 12.8998 16.8076H6.59978C5.93705 16.8076 5.39978 16.2703 5.39978 15.6076Z" fill="white"/>
<path d="M30.0001 8.40755C30.0001 13.0467 26.2393 16.8075 21.6001 16.8075C16.9609 16.8075 13.2001 13.0467 13.2001 8.40755C13.2001 3.76836 16.9609 0.00756836 21.6001 0.00756836C26.2393 0.00756836 30.0001 3.76836 30.0001 8.40755Z" fill="#FFBA33"/>
<path fill-rule="evenodd" clip-rule="evenodd" d="M20.3246 5.72121C20.7449 4.51219 22.4547 4.51222 22.8749 5.72121L23.0939 6.35112L23.7606 6.36471C25.0403 6.39078 25.5687 8.01693 24.5487 8.7902L24.0173 9.19307L24.2104 9.83138C24.581 11.0565 23.1978 12.0615 22.1472 11.3304L21.5998 10.9495L21.0524 11.3304C20.0017 12.0615 18.6185 11.0565 18.9891 9.83138L19.1822 9.19307L18.6508 8.7902C17.6308 8.0169 18.1592 6.39078 19.4389 6.36471L20.1057 6.35112L20.3246 5.72121Z" fill="white"/>
</svg>
