<svg width="24" height="24" viewBox="0 0 24 24" fill="none" xmlns="http://www.w3.org/2000/svg">
<path d="M19.664 8.83575C19.5472 8.59266 19.3014 8.4375 19.0309 8.4375H14.543L18.2536 1.01761C18.3621 0.799922 18.3511 0.541078 18.2234 0.333703C18.0943 0.126328 17.8677 0 17.6246 0H9.18713C8.89463 0 8.63231 0.181969 8.52933 0.455953L4.31058 11.706C4.22953 11.9222 4.25977 12.164 4.39022 12.3534C4.52208 12.543 4.73766 12.6562 4.96837 12.6562H9.69248L7.09833 23.1266C7.01869 23.4473 7.17248 23.7802 7.46911 23.9272C7.76484 24.073 8.12264 23.9947 8.33016 23.7363L19.5802 9.58008C19.7491 9.36858 19.7821 9.0795 19.664 8.83575Z" fill="url(#paint0_linear_12_2288)"/>
<defs>
<linearGradient id="paint0_linear_12_2288" x1="12" y1="24" x2="12" y2="0" gradientUnits="userSpaceOnUse">
<stop stop-color="#FD5900"/>
<stop offset="1" stop-color="#FFDE00"/>
</linearGradient>
</defs>
</svg>
