<svg width="40" height="40" viewBox="0 0 40 40" fill="none" xmlns="http://www.w3.org/2000/svg">
<g clip-path="url(#clip0_4_1562)">
<path d="M1.24445 26.9556C4.07 34.5722 11.4 40 20 40C28.6 40 35.93 34.5722 38.7556 26.9556L20 25.2178L1.24445 26.9556Z" fill="#FFDA44"/>
<path d="M20 0C11.4 0 4.07 5.42778 1.24445 13.0444L20 14.7822L38.7556 13.0433C35.93 5.42778 28.6 0 20 0Z" fill="#3D3D3D"/>
<path d="M1.24446 13.0444C0.419196 15.2704 -0.00222437 17.6259 9.9116e-06 20C-0.00235659 22.3744 0.419066 24.7303 1.24446 26.9567H38.7556C39.581 24.7303 40.0023 22.3744 40 20C40.0023 17.6256 39.581 15.2698 38.7556 13.0433L1.24446 13.0444Z" fill="#D80027"/>
</g>
<defs>
<clipPath id="clip0_4_1562">
<rect width="40" height="40" fill="white"/>
</clipPath>
</defs>
</svg>
