<svg width="30" height="30" viewBox="0 0 30 30" fill="none" xmlns="http://www.w3.org/2000/svg">
<g clip-path="url(#clip0_15_1998)">
<path d="M16.7242 29.6485H28.1891C29.1893 29.6485 30 28.8386 30 27.8396V7.4391C30 6.44007 29.1893 5.63025 28.1892 5.63025H13.3699L16.7242 29.6485Z" fill="#F5F5F5"/>
<path d="M28.1891 5.63013H26.3783C27.3784 5.63013 28.1891 6.44001 28.1891 7.43897V27.8395C28.1891 28.8385 27.3784 29.6483 26.3783 29.6483H28.1891C29.1892 29.6484 30 28.8385 30 27.8396V7.43903C30 6.44001 29.1892 5.63013 28.1891 5.63013Z" fill="#EEEEEE"/>
<path d="M26.8111 14.378H28.0684C28.1351 14.378 28.1891 14.324 28.1891 14.2573V12.6879C28.1891 12.6212 28.1351 12.5672 28.0684 12.5672H23.9386C23.8719 12.5672 23.8179 12.5132 23.8179 12.4465V11.3161C23.8179 11.2495 23.7638 11.1954 23.6972 11.1954H22.1277C22.061 11.1954 22.007 11.2495 22.007 11.3161V12.4465C22.007 12.5132 21.953 12.5672 21.8863 12.5672H17.7565C17.6898 12.5672 17.6358 12.6212 17.6358 12.6879V14.2573C17.6358 14.324 17.6898 14.378 17.7565 14.378H24.5516C24.6414 14.378 24.7002 14.4726 24.6596 14.5528C24.3048 15.2533 23.7685 16.1531 23.0048 17.0676C22.9568 17.1251 22.8671 17.1251 22.8191 17.0676C22.3524 16.5087 21.9707 15.9555 21.6641 15.4506C21.6296 15.3939 21.5562 15.3753 21.4991 15.4093L20.1504 16.2118C20.0929 16.246 20.0737 16.3204 20.1083 16.3776C20.4853 16.9997 20.9628 17.6867 21.5555 18.3779C21.599 18.4286 21.5943 18.5051 21.5435 18.5484C20.6895 19.2773 19.6603 19.9465 18.4291 20.4494C18.3678 20.4745 18.3376 20.5438 18.362 20.6054L18.9403 22.0644C18.965 22.1267 19.0361 22.1575 19.0982 22.1322C20.4562 21.5791 21.7128 20.8001 22.8312 19.8261C22.8767 19.7865 22.9436 19.7864 22.989 19.826C24.0004 20.7089 25.2336 21.5245 26.7267 22.1321C26.7888 22.1574 26.86 22.1268 26.8847 22.0645L27.4631 20.6054C27.4875 20.5438 27.4573 20.4745 27.3959 20.4494C26.1639 19.9461 25.1347 19.2766 24.2807 18.548C24.2299 18.5047 24.225 18.4285 24.2685 18.3779C24.6261 17.962 24.9634 17.5224 25.2781 17.0601C25.9915 16.0123 26.4443 15.0654 26.6997 14.4525C26.7184 14.4075 26.7622 14.378 26.8111 14.378Z" fill="#607D8B"/>
<path d="M21.5143 23.7232L13.6646 0.664043C13.601 0.477188 13.4254 0.351562 13.2278 0.351562H1.81084C0.810762 0.351562 0 1.16145 0 2.16041V21.9144C0 22.9134 0.810762 23.7232 1.81084 23.7232H21.5143Z" fill="#1E93FF"/>
<path d="M21.5144 23.7231L16.7242 29.6484L14.1467 23.7231H21.5144Z" fill="#024684"/>
<path d="M5.95429 17H4.14929L7.73214 7.07929H9.51L13.0929 17H11.2607L10.46 14.7064H6.755L5.95429 17ZM8.39714 10.0379L7.27071 13.2407H9.95786L8.81786 10.0379C8.73643 9.78 8.64143 9.48143 8.61429 9.27786C8.57357 9.46786 8.49214 9.76643 8.39714 10.0379Z" fill="white"/>
</g>
<defs>
<clipPath id="clip0_15_1998">
<rect width="30" height="30" fill="white"/>
</clipPath>
</defs>
</svg>
