<svg width="30" height="30" viewBox="0 0 30 30" fill="none" xmlns="http://www.w3.org/2000/svg">
<g clip-path="url(#clip0_15_2026)">
<path opacity="0.5" d="M25.4063 4.63597C24.1038 4.3819 22.8332 3.98559 21.6173 3.45419C20.0826 2.78338 18.6477 1.90425 17.3531 0.841601C16.6897 0.297642 15.8584 0.000251437 15.0005 1.59366e-07C14.1427 -0.000251118 13.3112 0.296653 12.6475 0.840223C11.3533 1.90345 9.91867 2.78305 8.38409 3.45415C7.16809 3.98537 5.89752 4.38166 4.59514 4.63593C3.73825 4.8085 2.96768 5.27275 2.41462 5.94963C1.86156 6.6265 1.56021 7.47415 1.56189 8.34824V16.1941C1.55453 18.4353 2.17519 20.6338 3.3535 22.5404C4.53182 24.4469 6.22067 25.9852 8.22862 26.9809L13.612 29.6716C14.0426 29.8873 14.5175 29.9998 14.9992 30C15.4808 30.0002 15.9559 29.8883 16.3867 29.6729L21.7721 26.9809C23.7797 25.9849 25.4696 24.4465 26.6476 22.54C27.8257 20.6335 28.4462 18.4352 28.4388 16.1941V8.34824C28.4404 7.47429 28.1391 6.6268 27.5862 5.94998C27.0333 5.27316 26.2629 4.80882 25.4063 4.63597Z" fill="#1E93FF"/>
<path d="M22.4706 7.55909C21.5356 7.37668 20.6233 7.09215 19.7503 6.71063C18.6485 6.22902 17.6184 5.59785 16.6889 4.83493C16.2127 4.4444 15.6158 4.23089 14.9999 4.23071C14.384 4.23054 13.787 4.4437 13.3105 4.83396C12.3814 5.59731 11.3514 6.22882 10.2496 6.71063C9.37658 7.09202 8.46437 7.37653 7.52933 7.55909C6.91413 7.68298 6.3609 8.01629 5.96383 8.50224C5.56677 8.98819 5.35041 9.59675 5.35161 10.2243V15.8572C5.34632 17.4663 5.79192 19.0447 6.63789 20.4135C7.48387 21.7823 8.69638 22.8867 10.138 23.6016L14.0029 25.5333C14.3121 25.6882 14.6531 25.769 14.9989 25.7691C15.3447 25.7693 15.6858 25.6889 15.9951 25.5343L19.8615 23.6016C21.3028 22.8865 22.5161 21.782 23.3618 20.4132C24.2076 19.0445 24.6531 17.4662 24.6478 15.8572V10.2243C24.649 9.59685 24.4326 8.9884 24.0357 8.50248C23.6387 8.01655 23.0857 7.68318 22.4706 7.55909Z" fill="#1E93FF"/>
<path d="M14.9993 21.9483C14.6339 21.9479 14.2835 21.8026 14.0251 21.5442C13.7667 21.2858 13.6214 20.9354 13.621 20.57V16.4351C13.2555 16.4351 12.9049 16.2899 12.6464 16.0314C12.388 15.7729 12.2427 15.4223 12.2427 15.0568C12.2427 14.6912 12.388 14.3406 12.6464 14.0822C12.9049 13.8237 13.2555 13.6785 13.621 13.6785H14.9993C15.3648 13.6788 15.7151 13.8242 15.9735 14.0826C16.2319 14.341 16.3773 14.6913 16.3776 15.0568V19.1917C16.7432 19.1917 17.0938 19.3369 17.3523 19.5954C17.6107 19.8539 17.7559 20.2044 17.7559 20.57C17.7559 20.9355 17.6107 21.2861 17.3523 21.5446C17.0938 21.8031 16.7432 21.9483 16.3776 21.9483H14.9993Z" fill="white"/>
<path d="M14.9997 12.3002C16.0463 12.3002 16.8948 11.4517 16.8948 10.4051C16.8948 9.35838 16.0463 8.50989 14.9997 8.50989C13.953 8.50989 13.1045 9.35838 13.1045 10.4051C13.1045 11.4517 13.953 12.3002 14.9997 12.3002Z" fill="white"/>
</g>
<defs>
<clipPath id="clip0_15_2026">
<rect width="30" height="30" fill="white"/>
</clipPath>
</defs>
</svg>
