<svg width="30" height="30" viewBox="0 0 30 30" fill="none" xmlns="http://www.w3.org/2000/svg">
<g clip-path="url(#clip0_15_2046)">
<path d="M15 30C23.2843 30 30 23.2843 30 15C30 6.71573 23.2843 0 15 0C6.71573 0 0 6.71573 0 15C0 23.2843 6.71573 30 15 30Z" fill="#1E93FF"/>
<path d="M23.086 13.3336C22.8645 14.5928 22.3535 15.736 21.6627 16.8C20.7422 18.2186 19.5668 19.3946 18.2514 20.444C17.4779 21.0555 16.6691 21.6209 15.8291 22.1373C15.3018 22.4625 14.7598 22.4948 14.2307 22.1725C12.7576 21.2754 11.3789 20.2536 10.1561 19.0307C9.2549 18.1289 8.47502 17.134 7.86623 16.0108C7.19826 14.7803 6.7881 13.469 6.79689 12.0586C6.80627 10.5996 7.39924 9.40668 8.55939 8.51313C9.42482 7.84691 10.4151 7.55277 11.502 7.60844C12.4201 7.65531 13.224 8.02621 13.9506 8.56293C14.2969 8.81899 14.9748 9.43012 14.986 9.44184C15.2789 9.19164 15.5584 8.93617 15.8561 8.70473C16.5322 8.17738 17.2711 7.77836 18.1313 7.65414C19.3342 7.47836 20.4287 7.77133 21.402 8.48735C22.2821 9.12376 22.8902 10.0683 23.1053 11.1329C23.2617 11.8653 23.2125 12.6018 23.086 13.3336Z" fill="white"/>
</g>
<defs>
<clipPath id="clip0_15_2046">
<rect width="30" height="30" fill="white"/>
</clipPath>
</defs>
</svg>
