<svg width="30" height="30" viewBox="0 0 30 30" fill="none" xmlns="http://www.w3.org/2000/svg">
<g clip-path="url(#clip0_15_2037)">
<path d="M15 30C23.2843 30 30 23.2843 30 15C30 6.71573 23.2843 0 15 0C6.71573 0 0 6.71573 0 15C0 23.2843 6.71573 30 15 30Z" fill="#1E93FF"/>
<path d="M22.4625 11.7094L17.1334 7.97344C16.9761 7.86308 16.7914 7.79802 16.5997 7.78536C16.4079 7.7727 16.2163 7.81293 16.0458 7.90165C15.8753 7.99037 15.7324 8.12419 15.6327 8.28853C15.5331 8.45286 15.4804 8.6414 15.4805 8.8336V10.002C6.83206 12.9029 6.59592 18.3158 7.38284 21.7652C7.52287 22.3793 8.40061 22.3658 8.526 21.7483C9.4635 17.1246 13.9694 15.818 15.4817 15.5063V16.3055C15.4813 16.4977 15.5337 16.6863 15.6331 16.8508C15.7326 17.0153 15.8753 17.1493 16.0457 17.2383C16.216 17.3272 16.4076 17.3677 16.5994 17.3553C16.7912 17.3429 16.9759 17.2781 17.1334 17.168L22.4625 13.432C22.6013 13.3353 22.7146 13.2065 22.7929 13.0565C22.8711 12.9065 22.912 12.7399 22.912 12.5707C22.912 12.4016 22.8711 12.2349 22.7929 12.0849C22.7146 11.935 22.6013 11.8061 22.4625 11.7094Z" fill="white"/>
</g>
<defs>
<clipPath id="clip0_15_2037">
<rect width="30" height="30" fill="white"/>
</clipPath>
</defs>
</svg>
