<svg width="25" height="25" viewBox="0 0 25 25" fill="none" xmlns="http://www.w3.org/2000/svg">
<path d="M8.68052 22.5466C8.59672 22.5466 8.51437 22.5247 8.44164 22.483C8.36891 22.4414 8.30833 22.3815 8.26591 22.3092C6.46884 19.2476 1.68014 12.7317 1.63197 12.6663C1.56354 12.5733 1.53088 12.4587 1.53993 12.3436C1.54899 12.2285 1.59917 12.1205 1.68129 12.0394L3.15331 10.5848C3.23328 10.5058 3.33842 10.4573 3.45045 10.4477C3.56248 10.4382 3.6743 10.4682 3.76648 10.5326L8.58028 13.8939C11.7807 9.7826 14.7548 6.94524 16.7096 5.27341C18.9007 3.39923 20.2938 2.55707 20.352 2.52197C20.4267 2.47712 20.5123 2.45342 20.5994 2.45341H22.9808C23.0782 2.4534 23.1734 2.48301 23.2537 2.53832C23.3339 2.59363 23.3955 2.67203 23.4301 2.76312C23.4648 2.85421 23.471 2.95369 23.4479 3.04837C23.4247 3.14305 23.3733 3.22846 23.3005 3.29327C19.7702 6.4375 16.0998 11.4333 13.6424 15.0705C10.9711 19.024 9.11672 22.2714 9.09831 22.3037C9.05657 22.377 8.99628 22.438 8.92351 22.4807C8.85073 22.5233 8.76803 22.546 8.6837 22.5465L8.68052 22.5466Z" fill="url(#paint0_linear_4_3209)"/>
<defs>
<linearGradient id="paint0_linear_4_3209" x1="1.53845" y1="12.5" x2="23.4616" y2="12.5" gradientUnits="userSpaceOnUse">
<stop stop-color="#2E74FF"/>
<stop offset="1" stop-color="#0025E3"/>
</linearGradient>
</defs>
</svg>
