<svg width="60" height="60" viewBox="0 0 60 60" fill="none" xmlns="http://www.w3.org/2000/svg">
<rect width="60" height="60" rx="30" fill="white"/>
<path d="M43.65 16.3499C43.2314 15.9259 42.7328 15.5892 42.183 15.3594C41.6333 15.1296 41.0433 15.0112 40.4475 15.0112C39.8516 15.0112 39.2617 15.1296 38.712 15.3594C38.1622 15.5892 37.6636 15.9259 37.245 16.3499L34.365 19.2749L40.725 25.6349L43.605 22.7549C44.032 22.3393 44.3722 21.843 44.6059 21.2949C44.8395 20.7467 44.962 20.1577 44.9662 19.5618C44.9704 18.966 44.8562 18.3752 44.6303 17.8238C44.4043 17.2725 44.0711 16.7715 43.65 16.3499Z" fill="#111114"/>
<path d="M32.2351 21.4048L19.6501 33.9898C19.5373 34.1058 19.4413 34.2371 19.3651 34.3798L15.1951 42.7948C15.0741 43.0219 15.0136 43.2764 15.0194 43.5337C15.0252 43.7909 15.0971 44.0424 15.2282 44.2639C15.3593 44.4854 15.5451 44.6694 15.7679 44.7983C15.9906 44.9271 16.2428 44.9965 16.5001 44.9998C16.7287 45.0007 16.9544 44.9494 17.1601 44.8498L25.5751 40.6798C25.7178 40.6035 25.8491 40.5076 25.9651 40.3948L38.5501 27.8098L32.2351 21.4048Z" fill="#111114"/>
<path d="M43.5 45H30C29.6022 45 29.2206 44.842 28.9393 44.5607C28.658 44.2794 28.5 43.8978 28.5 43.5C28.5 43.1022 28.658 42.7206 28.9393 42.4393C29.2206 42.158 29.6022 42 30 42H43.5C43.8978 42 44.2794 42.158 44.5607 42.4393C44.842 42.7206 45 43.1022 45 43.5C45 43.8978 44.842 44.2794 44.5607 44.5607C44.2794 44.842 43.8978 45 43.5 45Z" fill="#111114"/>
</svg>
