<svg width="30" height="30" viewBox="0 0 30 30" fill="none" xmlns="http://www.w3.org/2000/svg">
<g clip-path="url(#clip0_15_2639)">
<path d="M28.75 23.75H25.4212C24.88 21.9488 23.225 20.625 21.25 20.625C19.2751 20.625 17.6213 21.9488 17.0788 23.75H1.24998C0.55998 23.75 0 24.31 0 25C0 25.69 0.55998 26.25 1.24998 26.25H17.0787C17.62 28.0512 19.275 29.375 21.25 29.375C23.2249 29.375 24.8787 28.0512 25.4212 26.25H28.75C29.4412 26.25 29.9999 25.69 29.9999 25C29.9999 24.31 29.4412 23.75 28.75 23.75ZM21.25 26.875C20.2162 26.875 19.375 26.0338 19.375 25C19.375 23.9662 20.2162 23.125 21.25 23.125C22.2838 23.125 23.125 23.9662 23.125 25C23.125 26.0338 22.2837 26.875 21.25 26.875Z" fill="#1E93FF"/>
<path d="M28.75 3.74998H25.4212C24.8787 1.94875 23.225 0.625 21.25 0.625C19.2751 0.625 17.6213 1.94875 17.0787 3.74998H1.24998C0.55998 3.74998 0 4.30996 0 4.99996C0 5.68996 0.55998 6.24994 1.24998 6.24994H17.0787C17.6213 8.05123 19.275 9.37498 21.25 9.37498C23.225 9.37498 24.8788 8.05123 25.4212 6.25H28.75C29.4412 6.25 30 5.69002 30 5.00002C30 4.31002 29.4412 3.74998 28.75 3.74998ZM21.25 6.87496C20.2162 6.87496 19.375 6.03373 19.375 4.99996C19.375 3.96619 20.2162 3.12496 21.25 3.12496C22.2838 3.12496 23.125 3.96619 23.125 4.99996C23.125 6.03373 22.2837 6.87496 21.25 6.87496Z" fill="#1E93FF"/>
<path d="M28.75 13.75H12.9213C12.3787 11.9488 10.725 10.625 8.75004 10.625C6.77508 10.625 5.12127 11.9488 4.57881 13.75H1.24998C0.55998 13.75 0 14.31 0 15C0 15.69 0.55998 16.2499 1.24998 16.2499H4.57875C5.12127 18.0512 6.77502 19.3749 8.74998 19.3749C10.7249 19.3749 12.3787 18.0512 12.9212 16.2499H28.75C29.4412 16.2499 29.9999 15.69 29.9999 15C30 14.31 29.4412 13.75 28.75 13.75ZM8.74998 16.875C7.71621 16.875 6.87498 16.0337 6.87498 15C6.87498 13.9662 7.71621 13.125 8.74998 13.125C9.78375 13.125 10.625 13.9662 10.625 15C10.625 16.0337 9.78375 16.875 8.74998 16.875Z" fill="#1E93FF"/>
</g>
<defs>
<clipPath id="clip0_15_2639">
<rect width="30" height="30" fill="white"/>
</clipPath>
</defs>
</svg>
