<svg width="30" height="30" viewBox="0 0 30 30" fill="none" xmlns="http://www.w3.org/2000/svg">
<g clip-path="url(#clip0_12_2573)">
<path d="M15 0C6.728 0 0 6.728 0 15C0 23.272 6.728 30 15 30C23.272 30 30 23.272 30 15C30 6.728 23.272 0 15 0ZM15 27C8.384 27 3 21.616 3 15C3 8.384 8.384 3 15 3C21.616 3 27 8.384 27 15C27 21.616 21.616 27 15 27Z" fill="#1E93FF"/>
<path d="M12 12L7.49597 22.504L18 18L22.504 7.49597L12 12ZM15 16.504C14.168 16.504 13.496 15.832 13.496 15C13.496 14.168 14.168 13.496 15 13.496C15.832 13.496 16.504 14.168 16.504 15C16.504 15.832 15.832 16.504 15 16.504Z" fill="#1E93FF"/>
</g>
<defs>
<clipPath id="clip0_12_2573">
<rect width="30" height="30" fill="white"/>
</clipPath>
</defs>
</svg>
