<svg width="24" height="24" viewBox="0 0 24 24" fill="none" xmlns="http://www.w3.org/2000/svg">
<path d="M16.9 7.72563C16.7692 7.72569 16.6412 7.68695 16.5324 7.61432C16.4236 7.54169 16.3388 7.43843 16.2887 7.31758C16.2385 7.19674 16.2253 7.06375 16.2508 6.93542C16.2762 6.80709 16.3392 6.68919 16.4316 6.59662L18.3024 4.72495C18.4265 4.60085 18.5948 4.53113 18.7703 4.53113C18.9458 4.53113 19.1142 4.60085 19.2383 4.72495C19.3624 4.84905 19.4321 5.01736 19.4321 5.19287C19.4321 5.36837 19.3624 5.53668 19.2383 5.66078L17.3675 7.53158C17.3062 7.59318 17.2334 7.64205 17.1531 7.67535C17.0729 7.70866 16.9869 7.72574 16.9 7.72563Z" fill="#1E93FF"/>
<path d="M18.874 10.7414C18.7201 10.7411 18.571 10.6871 18.4526 10.5887C18.3341 10.4903 18.2537 10.3537 18.2252 10.2024C18.1967 10.0511 18.2218 9.89458 18.2963 9.75982C18.3708 9.62506 18.4899 9.52051 18.6332 9.46418L21.0959 8.49394C21.2596 8.42996 21.4421 8.43365 21.6031 8.5042C21.7642 8.57475 21.8906 8.70638 21.9545 8.87013C22.0185 9.03388 22.0148 9.21634 21.9443 9.37737C21.8737 9.5384 21.7421 9.66481 21.5784 9.72879L19.1148 10.699C19.0379 10.728 18.9562 10.7424 18.874 10.7414Z" fill="#1E93FF"/>
<path d="M14.0211 5.80633C13.9348 5.80654 13.8493 5.78945 13.7697 5.75605C13.6892 5.72317 13.616 5.67471 13.5544 5.61345C13.4927 5.5522 13.4437 5.47935 13.4103 5.39911C13.3768 5.31886 13.3596 5.2328 13.3595 5.14587C13.3594 5.05894 13.3765 4.97284 13.4098 4.89254L14.4171 2.44578C14.484 2.28355 14.6126 2.15454 14.7747 2.08714C14.9367 2.01973 15.1188 2.01945 15.2811 2.08635C15.4433 2.15326 15.5723 2.28187 15.6397 2.44389C15.7071 2.60591 15.7074 2.78807 15.6405 2.9503L14.6323 5.39707C14.5825 5.51819 14.4978 5.62177 14.3889 5.69464C14.2801 5.76751 14.1521 5.80639 14.0211 5.80633Z" fill="#1E93FF"/>
<path d="M18.6147 11.5855L12.3779 5.34956C11.9159 4.90825 11.3016 4.66199 10.6627 4.66199C10.0239 4.66199 9.40959 4.90825 8.94763 5.34956L7.90771 6.38859C7.26844 7.03068 6.85333 7.86184 6.72402 8.75862L6.43207 10.7952C6.3434 11.409 6.05914 11.9779 5.62148 12.4173L2.71077 15.328C2.48544 15.5532 2.30669 15.8206 2.18473 16.1148C2.06277 16.4091 2 16.7246 2 17.0431C2 17.3617 2.06277 17.6771 2.18473 17.9714C2.30669 18.2657 2.48544 18.5331 2.71077 18.7582L5.20781 21.2526C5.43298 21.478 5.70035 21.6567 5.99464 21.7787C6.28893 21.9006 6.60436 21.9634 6.92292 21.9634C7.24148 21.9634 7.55691 21.9006 7.8512 21.7787C8.14549 21.6567 8.41286 21.478 8.63804 21.2526L11.5487 18.3419C11.9883 17.9044 12.557 17.6198 13.1708 17.5304L15.2074 17.2394C16.1032 17.1105 16.9335 16.696 17.5748 16.0575L18.6147 15.0158C19.0689 14.5605 19.324 13.9437 19.324 13.3007C19.324 12.6576 19.0689 12.0408 18.6147 11.5855ZM12.2217 13.6142C12.0367 13.7993 11.801 13.9253 11.5443 13.9764C11.2877 14.0275 11.0216 14.0013 10.7798 13.9012C10.5381 13.8011 10.3314 13.6315 10.186 13.4139C10.0406 13.1963 9.96301 12.9405 9.96301 12.6788C9.96301 12.4171 10.0406 12.1613 10.186 11.9437C10.3314 11.7261 10.5381 11.5566 10.7798 11.4564C11.0216 11.3563 11.2877 11.3301 11.5443 11.3812C11.801 11.4323 12.0367 11.5584 12.2217 11.7434C12.4692 11.9915 12.6082 12.3275 12.6082 12.6779C12.6082 13.0283 12.4692 13.3644 12.2217 13.6125V13.6142Z" fill="#1E93FF"/>
</svg>
