<svg width="30" height="30" viewBox="0 0 30 30" fill="none" xmlns="http://www.w3.org/2000/svg">
<g clip-path="url(#clip0_12_2524)">
<path d="M12.0165 29.9288C12.4134 30.0984 12.8748 29.9568 13.1066 29.5906L23.6535 12.8328C23.8243 12.5616 23.8346 12.2191 23.6801 11.9393C23.5255 11.6587 23.2303 11.4844 22.9101 11.4844H15.8712L18.489 1.09522C18.5946 0.675512 18.3808 0.242035 17.9835 0.0712345C17.5886 -0.0986873 17.1243 0.0437541 16.8934 0.409379L6.3465 17.1672C6.1757 17.4384 6.16539 17.7809 6.3199 18.0607C6.47441 18.3414 6.76966 18.5156 7.08982 18.5156H14.1288L11.511 28.9048C11.4054 29.3246 11.6191 29.758 12.0165 29.9288Z" fill="#1E93FF"/>
</g>
<defs>
<clipPath id="clip0_12_2524">
<rect width="30" height="30" fill="white"/>
</clipPath>
</defs>
</svg>
