<svg width="30" height="30" viewBox="0 0 30 30" fill="none" xmlns="http://www.w3.org/2000/svg">
<g clip-path="url(#clip0_12_2562)">
<path d="M15.8203 6.50456C15.5314 6.47481 15.2385 6.45947 14.9414 6.45947C10.2642 6.45947 6.45947 10.2642 6.45947 14.9414C6.45947 19.6183 10.2642 23.4231 14.9414 23.4231C15.2385 23.4231 15.5314 23.4079 15.8203 23.378C20.086 22.9369 23.4237 19.3219 23.4237 14.9414C23.4237 10.5608 20.086 6.94585 15.8203 6.50456ZM15.8203 21.608V8.27451C19.1146 8.70641 21.6662 11.531 21.6662 14.9414C21.6662 18.3517 19.1146 21.1763 15.8203 21.608Z" fill="#1E93FF"/>
<path d="M14.9414 5.18807C15.4266 5.18807 15.8203 4.79439 15.8203 4.30916V0.820313C15.8203 0.334854 15.4266 -0.0585938 14.9414 -0.0585938C14.4559 -0.0585938 14.0625 0.334854 14.0625 0.820313V4.30916C14.0625 4.79439 14.4559 5.18807 14.9414 5.18807Z" fill="#1E93FF"/>
<path d="M14.9414 24.6947C14.4559 24.6947 14.0625 25.0884 14.0625 25.5736V29.0625C14.0625 29.5479 14.4559 29.9414 14.9414 29.9414C15.4266 29.9414 15.8203 29.5479 15.8203 29.0625V25.5736C15.8203 25.0882 15.4269 24.6947 14.9414 24.6947Z" fill="#1E93FF"/>
<path d="M5.18807 14.9414C5.18807 14.4559 4.79439 14.0625 4.30916 14.0625H0.820313C0.334854 14.0625 -0.0585938 14.4559 -0.0585938 14.9414C-0.0585938 15.4266 0.334854 15.8203 0.820313 15.8203H4.30916C4.79439 15.8203 5.18807 15.4269 5.18807 14.9414Z" fill="#1E93FF"/>
<path d="M29.0625 14.0625H25.5736C25.0882 14.0625 24.6947 14.4559 24.6947 14.9414C24.6947 15.4266 25.0882 15.8203 25.5736 15.8203H29.0625C29.5479 15.8203 29.9414 15.4266 29.9414 14.9414C29.9414 14.4559 29.5479 14.0625 29.0625 14.0625Z" fill="#1E93FF"/>
<path d="M6.59085 7.83368C6.76251 8.00534 6.9875 8.09117 7.21227 8.09117C7.43726 8.09117 7.66202 8.00534 7.83368 7.83368C8.17677 7.49036 8.17677 6.93395 7.83368 6.59085L5.29744 4.05461C4.95435 3.71129 4.39771 3.71129 4.05461 4.05461C3.71129 4.39771 3.71129 4.95412 4.05461 5.29744L6.59085 7.83368Z" fill="#1E93FF"/>
<path d="M23.2919 22.0491C22.9488 21.7058 22.3924 21.7058 22.0491 22.0491C21.706 22.3922 21.706 22.9486 22.0491 23.2919L24.5853 25.8282C24.757 25.9998 24.982 26.0857 25.2067 26.0857C25.4317 26.0857 25.6565 25.9998 25.8281 25.8282C26.1712 25.4849 26.1712 24.9285 25.8281 24.5854L23.2919 22.0491Z" fill="#1E93FF"/>
<path d="M6.59092 22.0491L4.05468 24.5854C3.71159 24.9285 3.71159 25.4849 4.05468 25.8282C4.22635 25.9998 4.45111 26.0857 4.6761 26.0857C4.90086 26.0857 5.12585 25.9998 5.29751 25.8282L7.83375 23.2919C8.17685 22.9486 8.17685 22.3922 7.83375 22.0491C7.49066 21.7058 6.93402 21.7058 6.59092 22.0491Z" fill="#1E93FF"/>
<path d="M22.6705 8.09117C22.8955 8.09117 23.1203 8.00534 23.2919 7.83368L25.8282 5.29744C26.1713 4.95412 26.1713 4.39771 25.8282 4.05461C25.4851 3.71129 24.9285 3.71129 24.5854 4.05461L22.0491 6.59085C21.7058 6.93395 21.7058 7.49036 22.0491 7.83368C22.2208 8.00534 22.4455 8.09117 22.6705 8.09117Z" fill="#1E93FF"/>
</g>
<defs>
<clipPath id="clip0_12_2562">
<rect width="30" height="30" fill="white"/>
</clipPath>
</defs>
</svg>
