<svg width="30" height="30" viewBox="0 0 30 30" fill="none" xmlns="http://www.w3.org/2000/svg">
<path d="M21.6938 25.6769L13.4223 4.28163C13.2708 3.88204 12.8874 3.61822 12.4601 3.61951H9.26326C8.83671 3.62074 8.45464 3.88368 8.30111 4.28163L0.0346848 25.6769C-0.0266105 25.8358 -0.00580757 26.0146 0.0902959 26.1551C0.186399 26.2957 0.345498 26.3799 0.515788 26.3805H3.77991C3.99456 26.3802 4.18729 26.249 4.26617 26.0494L5.98877 21.5385C6.06553 21.3395 6.25657 21.2081 6.46987 21.2075H15.2535C15.4681 21.2077 15.6609 21.3389 15.7398 21.5385L17.4624 26.0494C17.5391 26.2484 17.7302 26.3798 17.9435 26.3805H21.2076C21.3781 26.3799 21.5376 26.296 21.6345 26.1557C21.7314 26.0154 21.7536 25.8367 21.6938 25.6769ZM13.6085 17.5865H8.11482C7.93527 17.5872 7.76703 17.4989 7.66554 17.3508C7.56404 17.2027 7.54248 17.0139 7.60788 16.8468L10.3547 9.66155C10.4332 9.44948 10.6355 9.30866 10.8616 9.30866C11.0878 9.30866 11.29 9.44948 11.3686 9.66155L14.1206 16.8468C14.1837 17.0148 14.1604 17.2031 14.0582 17.3507C13.956 17.4983 13.788 17.5864 13.6085 17.5865Z" fill="#1E93FF"/>
<path d="M29.9653 25.6769L25.7701 14.6327C25.6175 14.2309 25.2325 13.9653 24.8027 13.9653H23.3026C22.8728 13.9653 22.4878 14.2309 22.3352 14.6327L20.4523 19.5883L21.7041 22.8369C21.7841 22.785 21.8778 22.758 21.9731 22.7593H26.1322C26.3442 22.7592 26.5348 22.8883 26.6133 23.0852L27.803 26.0545C27.8815 26.2514 28.0721 26.3806 28.2841 26.3803H29.4842C29.6545 26.3798 29.8136 26.2956 29.9097 26.155C30.0058 26.0146 30.0266 25.8358 29.9653 25.6769ZM25.2942 20.6902H22.8164C22.7286 20.6909 22.6462 20.6475 22.5973 20.5746C22.5484 20.5017 22.5393 20.4091 22.5732 20.328L23.8096 17.2346C23.8467 17.1323 23.9439 17.0642 24.0527 17.0642C24.1615 17.0642 24.2587 17.1323 24.2958 17.2346L25.5373 20.328C25.5701 20.409 25.5606 20.5011 25.5118 20.5736C25.4631 20.6462 25.3816 20.6899 25.2942 20.6902Z" fill="#1E93FF"/>
</svg>
