<svg width="28" height="28" viewBox="0 0 28 28" fill="none" xmlns="http://www.w3.org/2000/svg">
<path d="M15.1667 21H5.83333C5.13333 21 4.66666 20.5333 4.66666 19.8333C4.66666 19.1333 5.13333 18.6666 5.83333 18.6666H15.1667C15.8667 18.6666 16.3333 19.1333 16.3333 19.8333C16.3333 20.5333 15.8667 21 15.1667 21Z" fill="white"/>
<path d="M22.1667 15.1667H5.83333C5.13333 15.1667 4.66666 14.7 4.66666 14C4.66666 13.3 5.13333 12.8334 5.83333 12.8334H22.1667C22.8667 12.8334 23.3333 13.3 23.3333 14C23.3333 14.7 22.8667 15.1667 22.1667 15.1667Z" fill="white"/>
<path d="M22.1667 9.33333H12.8333C12.1333 9.33333 11.6667 8.86667 11.6667 8.16667C11.6667 7.46667 12.1333 7 12.8333 7H22.1667C22.8667 7 23.3333 7.46667 23.3333 8.16667C23.3333 8.86667 22.8667 9.33333 22.1667 9.33333Z" fill="white"/>
</svg>
