<svg width="253" height="36" viewBox="0 0 253 36" fill="none" xmlns="http://www.w3.org/2000/svg">
<path fill-rule="evenodd" clip-rule="evenodd" d="M206.34 9.22177V10.7706H195.66V9.22177C195.66 8.82529 195.981 8.50368 196.378 8.50368H205.622C206.018 8.50368 206.34 8.82529 206.34 9.22177ZM195.66 14.9722V12.2106L206.339 12.2109V14.9725C206.339 15.1719 206.257 15.3623 206.111 15.4983L204.203 17.2727V28.7216C204.203 29.1181 203.882 29.4397 203.485 29.4397H198.514C198.117 29.4397 197.796 29.1181 197.796 28.7216V17.2723L195.889 15.4979C195.743 15.3619 195.66 15.1715 195.66 14.9722ZM200.04 20.0368C200.04 20.5671 200.47 20.9968 201 20.9968C201.53 20.9968 201.96 20.5671 201.96 20.0368C201.96 19.5066 201.53 19.0768 201 19.0768C200.47 19.0768 200.04 19.5066 200.04 20.0368Z" fill="#2E73FF"/>
<path d="M200.28 6.58369V3.31009C200.28 2.35713 201.72 2.35713 201.72 3.31009V6.58369C201.72 7.53665 200.28 7.53665 200.28 6.58369Z" fill="#FFE600"/>
<path d="M196.056 7.04417L193.672 4.17921C193.063 3.44961 194.169 2.52449 194.778 3.25857L197.162 6.12353C197.773 6.85665 196.658 7.76897 196.056 7.04417Z" fill="#FFE600"/>
<path d="M204.838 6.12352L207.222 3.25856C207.828 2.52288 208.939 3.44736 208.328 4.1792L205.944 7.04416C205.342 7.76896 204.227 6.85664 204.838 6.12352Z" fill="#FFE600"/>
<path d="M10.0216 13.19C10.0216 9.35 13.2016 6.68 17.8216 6.68C22.2616 6.68 25.0816 9.14 25.2016 13.1H21.3616C21.2716 11.21 19.9216 10.1 17.7616 10.1C15.3916 10.1 13.8616 11.24 13.8616 13.07C13.8616 14.63 14.7016 15.5 16.5316 15.92L19.9816 16.67C23.7316 17.48 25.5616 19.4 25.5616 22.67C25.5616 26.75 22.3816 29.39 17.5516 29.39C12.8716 29.39 9.81156 26.9 9.72156 22.97H13.5616C13.5916 24.83 15.0916 25.94 17.5516 25.94C20.1016 25.94 21.7216 24.83 21.7216 23C21.7216 21.53 20.9716 20.66 19.1716 20.27L15.6916 19.49C11.9716 18.68 10.0216 16.55 10.0216 13.19ZM38.5455 14.18H42.2055V29H38.8155L38.5455 27.02C37.6455 28.43 35.7255 29.39 33.7455 29.39C30.3255 29.39 28.3155 27.08 28.3155 23.45V14.18H31.9755V22.16C31.9755 24.98 33.0855 26.12 35.1255 26.12C37.4355 26.12 38.5455 24.77 38.5455 21.95V14.18ZM45.9857 35.87V14.18H49.3757L49.6157 16.43C50.5157 14.72 52.4657 13.73 54.7157 13.73C58.8857 13.73 61.6457 16.76 61.6457 21.41C61.6457 26.03 59.1257 29.39 54.7157 29.39C52.4957 29.39 50.5757 28.52 49.6457 27.02V35.87H45.9857ZM49.6757 21.59C49.6757 24.26 51.3257 26.09 53.8457 26.09C56.4257 26.09 57.9557 24.23 57.9557 21.59C57.9557 18.95 56.4257 17.06 53.8457 17.06C51.3257 17.06 49.6757 18.92 49.6757 21.59ZM71.1899 29.39C66.7799 29.39 63.6899 26.18 63.6899 21.59C63.6899 16.94 66.7199 13.73 71.0699 13.73C75.5099 13.73 78.3299 16.7 78.3299 21.32V22.43L67.1699 22.46C67.4399 25.07 68.8199 26.39 71.2499 26.39C73.2599 26.39 74.5799 25.61 74.9999 24.2H78.3899C77.7599 27.44 75.0599 29.39 71.1899 29.39ZM71.0999 16.73C68.9399 16.73 67.6199 17.9 67.2599 20.12H74.6999C74.6999 18.08 73.2899 16.73 71.0999 16.73ZM90.5591 14.12V17.51H89.2091C86.5691 17.51 84.9191 18.92 84.9191 21.8V29H81.2591V14.21H84.7091L84.9191 16.37C85.5491 14.9 86.9591 13.91 88.9391 13.91C89.4491 13.91 89.9591 13.97 90.5591 14.12ZM113.662 20.03H105.502V29H101.662V7.07H115.222V10.61H105.502V16.58H113.662V20.03ZM121.834 29H118.204V6.68H121.834V29ZM130.083 29.39C126.933 29.39 125.013 27.56 125.013 24.77C125.013 22.04 126.993 20.33 130.503 20.06L134.943 19.73V19.4C134.943 17.39 133.743 16.58 131.883 16.58C129.723 16.58 128.523 17.48 128.523 19.04H125.403C125.403 15.83 128.043 13.73 132.063 13.73C136.053 13.73 138.513 15.89 138.513 20V29H135.303L135.033 26.81C134.403 28.34 132.393 29.39 130.083 29.39ZM131.283 26.63C133.533 26.63 134.973 25.28 134.973 23V22.22L131.883 22.46C129.603 22.67 128.733 23.42 128.733 24.62C128.733 25.97 129.633 26.63 131.283 26.63ZM140.969 24.5H144.449C144.479 25.79 145.439 26.6 147.119 26.6C148.829 26.6 149.759 25.91 149.759 24.83C149.759 24.08 149.369 23.54 148.049 23.24L145.379 22.61C142.709 22.01 141.419 20.75 141.419 18.38C141.419 15.47 143.879 13.73 147.299 13.73C150.629 13.73 152.879 15.65 152.909 18.53H149.429C149.399 17.27 148.559 16.46 147.149 16.46C145.709 16.46 144.869 17.12 144.869 18.23C144.869 19.07 145.529 19.61 146.789 19.91L149.459 20.54C151.949 21.11 153.209 22.25 153.209 24.53C153.209 27.53 150.659 29.39 146.999 29.39C143.309 29.39 140.969 27.41 140.969 24.5ZM159.655 29H155.995V6.68H159.685V16.1C160.615 14.66 162.355 13.73 164.485 13.73C168.145 13.73 170.065 16.04 170.065 19.88V29H166.405V20.75C166.405 18.26 165.175 17.06 163.315 17.06C161.005 17.06 159.655 18.68 159.655 20.9V29ZM186.127 7.07V25.46H195.307V29H182.287V7.07H186.127Z" fill="white"/>
<path d="M207.761 20.26C207.761 15.94 210.581 12.7 214.811 12.7C217.031 12.7 218.771 13.63 219.641 15.22L219.851 13.18H223.241V27.25C223.241 32.2 220.271 35.29 215.471 35.29C211.211 35.29 208.301 32.86 207.851 28.9H211.511C211.751 30.82 213.221 31.96 215.471 31.96C217.991 31.96 219.611 30.37 219.611 27.91V25.45C218.681 26.83 216.851 27.7 214.721 27.7C210.521 27.7 207.761 24.55 207.761 20.26ZM211.451 20.17C211.451 22.66 213.041 24.52 215.441 24.52C217.961 24.52 219.521 22.75 219.521 20.17C219.521 17.65 217.991 15.91 215.441 15.91C213.011 15.91 211.451 17.74 211.451 20.17ZM230.689 28H227.029V5.68H230.719V15.1C231.649 13.66 233.389 12.73 235.519 12.73C239.179 12.73 241.099 15.04 241.099 18.88V28H237.439V19.75C237.439 17.26 236.209 16.06 234.349 16.06C232.039 16.06 230.689 17.68 230.689 19.9V28ZM249.735 28H246.075V16.24H243.225V13.18H246.075V8.56H249.735V13.18H252.615V16.24H249.735V28Z" fill="white"/>
</svg>
