<svg width="24" height="24" viewBox="0 0 24 24" fill="none" xmlns="http://www.w3.org/2000/svg">
<g clip-path="url(#clip0_15_3046)">
<path d="M7.46953 20.6751C6.56717 20.224 5.75595 19.6412 5.05758 18.9424C4.3587 18.2441 3.77595 17.4328 3.32482 16.5304C3.19008 16.2604 2.86193 16.1517 2.59296 16.2865C2.32342 16.4212 2.21424 16.7488 2.34898 17.0184C2.85288 18.0257 3.50436 18.9323 4.28629 19.7137C5.0677 20.4956 5.9743 21.1471 6.98158 21.651C7.05987 21.6898 7.14297 21.7085 7.22499 21.7085C7.42529 21.7085 7.61757 21.5982 7.71345 21.407C7.84824 21.1375 7.73907 20.8099 7.46953 20.6751Z" fill="#1E93FF"/>
<path d="M6.49444 22.6252C5.38064 22.0686 4.37816 21.3484 3.51467 20.4855C2.65174 19.622 1.93159 18.6195 1.37492 17.5057C1.23961 17.2367 0.911471 17.127 0.643005 17.2617C0.373465 17.3965 0.264289 17.7241 0.399033 17.9936C1.00843 19.2124 1.79731 20.3102 2.74333 21.2568C3.68986 22.2028 4.78771 22.9917 6.00645 23.6011C6.08474 23.64 6.16783 23.6586 6.24986 23.6586C6.45016 23.6586 6.64243 23.5484 6.73831 23.3571C6.87316 23.0876 6.76398 22.76 6.49444 22.6252Z" fill="#1E93FF"/>
<path d="M17.5056 1.37479C18.6194 1.93141 19.6218 2.65161 20.4853 3.51454C21.3483 4.37798 22.0684 5.38051 22.6251 6.49431C22.721 6.68556 22.9132 6.79581 23.1135 6.79581C23.1956 6.79581 23.2787 6.77714 23.3569 6.73828C23.6265 6.60353 23.7357 6.2759 23.6009 6.00636C22.9915 4.78763 22.2026 3.68978 21.2566 2.74325C20.3101 1.79722 19.2122 1.00834 17.9935 0.398951C17.7239 0.265229 17.3963 0.373383 17.2615 0.642922C17.1268 0.912462 17.2361 1.24004 17.5056 1.37479Z" fill="#1E93FF"/>
<path d="M16.5304 3.32498C17.4328 3.77616 18.244 4.35891 18.9424 5.05774C19.6413 5.75606 20.224 6.56733 20.6752 7.46969C20.771 7.66094 20.9633 7.77119 21.1636 7.77119C21.2456 7.77119 21.3287 7.75252 21.407 7.71366C21.6766 7.57891 21.7857 7.25128 21.651 6.98174C21.1471 5.97446 20.4956 5.06786 19.7137 4.28645C18.9323 3.50447 18.0257 2.85304 17.0184 2.34914C16.7488 2.21598 16.4213 2.32358 16.2865 2.59312C16.1517 2.8626 16.261 3.19018 16.5304 3.32498Z" fill="#1E93FF"/>
<path d="M23.5206 14.1092L9.88528 0.465336C9.2695 -0.153516 8.18924 -0.156176 7.57028 0.463751L0.479404 7.55939C0.170438 7.86851 0 8.28 0 8.71712C0 9.15423 0.170438 9.56567 0.479404 9.87484L14.1147 23.5187C14.4231 23.8289 14.8344 24 15.2728 24C15.7096 24 16.1208 23.8295 16.4297 23.5203L23.5206 16.4247C23.8296 16.1155 24.0001 15.704 24.0001 15.267C24.0001 14.8299 23.8296 14.4184 23.5206 14.1092ZM19.4766 18.3857L18.3857 19.4766C18.2791 19.5831 18.1396 19.6364 18 19.6364C17.8605 19.6364 17.7209 19.5831 17.6143 19.4766C17.4013 19.2635 17.4013 18.9183 17.6143 18.7053L18.7052 17.6144C18.9183 17.4013 19.2635 17.4013 19.4765 17.6144C19.6897 17.8274 19.6897 18.1726 19.4766 18.3857ZM13.9094 20.2284L2.40766 8.72729L8.7273 2.40821L20.2287 13.9091L13.9094 20.2284Z" fill="#1E93FF"/>
<path d="M6.7053 5.6144L5.6144 6.7053C5.40132 6.91838 5.40132 7.26355 5.6144 7.47659C5.72092 7.5831 5.86052 7.63639 6.00007 7.63639C6.13963 7.63639 6.27918 7.5831 6.38575 7.47659L7.47664 6.38569C7.68972 6.17261 7.68972 5.82744 7.47664 5.6144C7.26355 5.40132 6.91838 5.40132 6.7053 5.6144Z" fill="#1E93FF"/>
<path d="M8.72736 4.36365C9.02861 4.36365 9.27283 4.11943 9.27283 3.81818C9.27283 3.51692 9.02861 3.27271 8.72736 3.27271C8.4261 3.27271 8.18188 3.51692 8.18188 3.81818C8.18188 4.11943 8.4261 4.36365 8.72736 4.36365Z" fill="#1E93FF"/>
</g>
<defs>
<clipPath id="clip0_15_3046">
<rect width="24" height="24" fill="white"/>
</clipPath>
</defs>
</svg>
